<mxfile host="65bd71144e">
    <diagram id="8IzxUx4ruyFInxYINJzj" name="Page-1">
        <mxGraphModel dx="1280" dy="558" grid="1" gridSize="10" guides="1" tooltips="1" connect="1" arrows="1" fold="1" page="1" pageScale="1" pageWidth="850" pageHeight="1100" math="0" shadow="0">
            <root>
                <mxCell id="0"/>
                <mxCell id="1" parent="0"/>
                <mxCell id="2" value="APP.js&lt;br&gt;" style="whiteSpace=wrap;html=1;" vertex="1" parent="1">
                    <mxGeometry x="390" y="15" width="120" height="60" as="geometry"/>
                </mxCell>
                <mxCell id="4" value="" style="line;strokeWidth=3;direction=south;html=1;opacity=60;" vertex="1" parent="1">
                    <mxGeometry x="440" y="75" width="30" height="35" as="geometry"/>
                </mxCell>
                <mxCell id="8" style="edgeStyle=none;html=1;entryX=0.88;entryY=0.44;entryDx=0;entryDy=0;entryPerimeter=0;exitX=0.75;exitY=0.5;exitDx=0;exitDy=0;exitPerimeter=0;" edge="1" parent="1" source="4" target="4">
                    <mxGeometry relative="1" as="geometry">
                        <mxPoint x="440" y="100" as="sourcePoint"/>
                    </mxGeometry>
                </mxCell>
                <mxCell id="9" style="edgeStyle=none;html=1;exitX=0.75;exitY=0.5;exitDx=0;exitDy=0;exitPerimeter=0;entryX=0.75;entryY=0.5;entryDx=0;entryDy=0;entryPerimeter=0;" edge="1" parent="1" source="4" target="4">
                    <mxGeometry relative="1" as="geometry"/>
                </mxCell>
                <mxCell id="10" value="" style="line;strokeWidth=2;html=1;opacity=60;" vertex="1" parent="1">
                    <mxGeometry x="210" y="140" width="520" height="10" as="geometry"/>
                </mxCell>
                <mxCell id="18" value="" style="shape=doubleArrow;direction=south;whiteSpace=wrap;html=1;strokeWidth=3;opacity=60;" vertex="1" parent="1">
                    <mxGeometry x="190" y="145" width="35" height="110" as="geometry"/>
                </mxCell>
                <mxCell id="21" value="" style="shape=doubleArrow;direction=south;whiteSpace=wrap;html=1;strokeWidth=3;opacity=60;" vertex="1" parent="1">
                    <mxGeometry x="440" y="145" width="30" height="110" as="geometry"/>
                </mxCell>
                <mxCell id="23" value="" style="shape=doubleArrow;direction=south;whiteSpace=wrap;html=1;strokeWidth=3;opacity=60;" vertex="1" parent="1">
                    <mxGeometry x="715" y="145" width="30" height="110" as="geometry"/>
                </mxCell>
                <mxCell id="25" value="&lt;b&gt;&lt;font style=&quot;font-size: 16px;&quot; color=&quot;#ff3333&quot;&gt;Comoonent&lt;/font&gt;&lt;/b&gt;" style="text;html=1;align=left;verticalAlign=middle;resizable=0;points=[];autosize=1;strokeColor=none;fillColor=none;" vertex="1" parent="1">
                    <mxGeometry x="160" y="110" width="110" height="30" as="geometry"/>
                </mxCell>
                <mxCell id="29" value="&lt;font style=&quot;font-size: 15px;&quot;&gt;&lt;b&gt;Config&lt;/b&gt;&lt;/font&gt;" style="text;html=1;align=center;verticalAlign=middle;resizable=0;points=[];autosize=1;strokeColor=none;fillColor=none;fontColor=#FF3333;" vertex="1" parent="1">
                    <mxGeometry x="420" y="110" width="70" height="30" as="geometry"/>
                </mxCell>
                <mxCell id="30" value="&lt;font style=&quot;font-size: 16px;&quot;&gt;&lt;b&gt;context&lt;/b&gt;&lt;/font&gt;" style="text;html=1;align=center;verticalAlign=middle;resizable=0;points=[];autosize=1;strokeColor=none;fillColor=none;fontSize=15;fontColor=#FF3333;" vertex="1" parent="1">
                    <mxGeometry x="640" y="105" width="80" height="30" as="geometry"/>
                </mxCell>
                <mxCell id="35" value="Main" style="ellipse;whiteSpace=wrap;html=1;align=center;newEdgeStyle={&quot;edgeStyle&quot;:&quot;entityRelationEdgeStyle&quot;,&quot;startArrow&quot;:&quot;none&quot;,&quot;endArrow&quot;:&quot;none&quot;,&quot;segment&quot;:10,&quot;curved&quot;:1,&quot;sourcePerimeterSpacing&quot;:0,&quot;targetPerimeterSpacing&quot;:0};treeFolding=1;treeMoving=1;strokeWidth=3;fontSize=16;fontColor=#FF3333;opacity=60;" vertex="1" parent="1">
                    <mxGeometry x="80" y="270" width="100" height="40" as="geometry"/>
                </mxCell>
                <mxCell id="37" value="Sidebar" style="ellipse;whiteSpace=wrap;html=1;align=center;newEdgeStyle={&quot;edgeStyle&quot;:&quot;entityRelationEdgeStyle&quot;,&quot;startArrow&quot;:&quot;none&quot;,&quot;endArrow&quot;:&quot;none&quot;,&quot;segment&quot;:10,&quot;curved&quot;:1,&quot;sourcePerimeterSpacing&quot;:0,&quot;targetPerimeterSpacing&quot;:0};treeFolding=1;treeMoving=1;strokeWidth=3;fontSize=16;fontColor=#FF3333;opacity=60;" vertex="1" parent="1">
                    <mxGeometry x="225" y="270" width="100" height="40" as="geometry"/>
                </mxCell>
                <mxCell id="40" value="gemini" style="ellipse;whiteSpace=wrap;html=1;align=center;newEdgeStyle={&quot;edgeStyle&quot;:&quot;entityRelationEdgeStyle&quot;,&quot;startArrow&quot;:&quot;none&quot;,&quot;endArrow&quot;:&quot;none&quot;,&quot;segment&quot;:10,&quot;curved&quot;:1,&quot;sourcePerimeterSpacing&quot;:0,&quot;targetPerimeterSpacing&quot;:0};treeFolding=1;treeMoving=1;strokeWidth=3;fontSize=16;fontColor=#FF3333;opacity=60;" vertex="1" parent="1">
                    <mxGeometry x="405" y="270" width="100" height="40" as="geometry"/>
                </mxCell>
                <mxCell id="41" value="context" style="ellipse;whiteSpace=wrap;html=1;align=center;newEdgeStyle={&quot;edgeStyle&quot;:&quot;entityRelationEdgeStyle&quot;,&quot;startArrow&quot;:&quot;none&quot;,&quot;endArrow&quot;:&quot;none&quot;,&quot;segment&quot;:10,&quot;curved&quot;:1,&quot;sourcePerimeterSpacing&quot;:0,&quot;targetPerimeterSpacing&quot;:0};treeFolding=1;treeMoving=1;strokeWidth=3;fontSize=16;fontColor=#FF3333;opacity=60;" vertex="1" parent="1">
                    <mxGeometry x="680" y="270" width="100" height="40" as="geometry"/>
                </mxCell>
                <mxCell id="45" value="&lt;font color=&quot;#7f00ff&quot;&gt;it cantion all part of the text dipalyed on the web page&lt;/font&gt;" style="shape=ext;double=1;rounded=1;whiteSpace=wrap;html=1;strokeWidth=3;fontSize=16;fontColor=#FF3333;opacity=60;" vertex="1" parent="1">
                    <mxGeometry x="70" y="350" width="120" height="80" as="geometry"/>
                </mxCell>
                <mxCell id="51" value="&lt;font color=&quot;#7f00ff&quot;&gt;sidabar of the web page&amp;nbsp;&lt;/font&gt;" style="shape=ext;double=1;rounded=1;whiteSpace=wrap;html=1;strokeWidth=3;fontSize=16;fontColor=#FF3333;opacity=60;" vertex="1" parent="1">
                    <mxGeometry x="225" y="350" width="120" height="80" as="geometry"/>
                </mxCell>
                <mxCell id="59" value="" style="shape=doubleArrow;direction=south;whiteSpace=wrap;html=1;strokeWidth=3;opacity=60;" vertex="1" parent="1">
                    <mxGeometry x="120" y="310" width="20" height="40" as="geometry"/>
                </mxCell>
                <mxCell id="61" value="" style="shape=doubleArrow;direction=south;whiteSpace=wrap;html=1;strokeWidth=3;opacity=60;" vertex="1" parent="1">
                    <mxGeometry x="270" y="310" width="20" height="40" as="geometry"/>
                </mxCell>
                <mxCell id="62" value="it cantaion api of the ai and hanlde the api" style="shape=ext;double=1;rounded=1;whiteSpace=wrap;html=1;strokeWidth=3;fontSize=16;fontColor=#7F00FF;opacity=60;" vertex="1" parent="1">
                    <mxGeometry x="395" y="350" width="120" height="80" as="geometry"/>
                </mxCell>
                <mxCell id="63" value="" style="shape=doubleArrow;direction=south;whiteSpace=wrap;html=1;strokeWidth=3;opacity=60;" vertex="1" parent="1">
                    <mxGeometry x="445" y="310" width="20" height="40" as="geometry"/>
                </mxCell>
                <mxCell id="64" value="&amp;nbsp;handling user input and ans state" style="shape=ext;double=1;rounded=1;whiteSpace=wrap;html=1;strokeWidth=3;fontSize=16;fontColor=#7F00FF;opacity=60;" vertex="1" parent="1">
                    <mxGeometry x="670" y="350" width="120" height="80" as="geometry"/>
                </mxCell>
                <mxCell id="66" value="" style="shape=doubleArrow;direction=south;whiteSpace=wrap;html=1;strokeWidth=3;opacity=60;" vertex="1" parent="1">
                    <mxGeometry x="720" y="310" width="20" height="40" as="geometry"/>
                </mxCell>
            </root>
        </mxGraphModel>
    </diagram>
</mxfile>